PathFileType	4	(X/Y/Z)	RBDS08\RBDS08runT35.trc
DataRate	CameraRate	NumFrames	NumMarkers	Units	OrigDataRate	OrigDataStartFrame	OrigNumFrames
150.000000	150.000000	6	33	mm	150.000000	2250	4500
Frame#	Time	L.ASIS			L.Heel.Bottom			L.Heel.Lateral			L.Heel.Top			L.Iliac.Crest			L.MT1			L.MT5			L.PSIS			L.Shank.Bottom.Lateral			L.Shank.Bottom.Medial			L.Shank.Top.Lateral			L.Shank.Top.Medial			L.Thigh.Bottom.Lateral			L.Thigh.Bottom.Medial			L.Thigh.Top.Lateral			L.Thigh.Top.Medial			R.ASIS			R.ASY			R.Heel.Bottom			R.Heel.Lateral			R.Heel.Top			R.Iliac.Crest			R.MT1			R.MT5			R.PSIS			R.Shank.Bottom.Lateral			R.Shank.Bottom.Medial			R.Shank.Top.Lateral			R.Shank.Top.Medial			R.Thigh.Bottom.Lateral			R.Thigh.Bottom.Medial			R.Thigh.Top.Lateral			R.Thigh.Top.Medial			
		X1	Y1	Z1	X2	Y2	Z2	X3	Y3	Z3	X4	Y4	Z4	X5	Y5	Z5	X6	Y6	Z6	X7	Y7	Z7	X8	Y8	Z8	X9	Y9	Z9	X10	Y10	Z10	X11	Y11	Z11	X12	Y12	Z12	X13	Y13	Z13	X14	Y14	Z14	X15	Y15	Z15	X16	Y16	Z16	X17	Y17	Z17	X18	Y18	Z18	X19	Y19	Z19	X20	Y20	Z20	X21	Y21	Z21	X22	Y22	Z22	X23	Y23	Z23	X24	Y24	Z24	X25	Y25	Z25	X26	Y26	Z26	X27	Y27	Z27	X28	Y28	Z28	X29	Y29	Z29	X30	Y30	Z30	X31	Y31	Z31	X32	Y32	Z32	X33	Y33	Z33	

2251	15	2157.599377911085	945.5108773056493	940.5910402931391	1613.159832911823	548.0893605175322	1030.525843344145	1618.873630926538	518.8333890004147	981.2179340812927	1658.387751695164	523.2667722345175	1029.036645769756	2116.258295117817	1022.153608143534	904.8861284318604	1579.486824246235	320.0757130782644	1042.360834305242	1565.115431596214	373.0942578867489	944.8158132333126	1985.256030493458	989.2139362904963	989.5306221026628	1723.332258308983	467.2733307925478	965.5438778189352	1725.972151515109	501.0879335822565	1005.040413227904	1802.981051245125	473.8508416271591	952.0785264583371	1809.387916900565	505.6408459522062	994.441132093621	2069.012367540855	554.9714584063419	903.6017377538441	2012.918147634135	552.8995761415796	950.5896519905064	2052.743833231164	663.9977376648685	890.9244412140612	2001.46694230118	662.1261068485982	939.0186926199204	2146.271957031288	974.2554775460405	1164.443342247842	-6405165543.146266	1570143293.738112	-3344768643.084135	2104.368927582609	30.55517897280902	1091.70752209548	2137.154102396594	45.87053203641632	1129.127700177648	2119.849342589081	77.63672594657412	1084.95288185336	2090.802807380718	1035.462488091949	1196.488759522214	2325.757217313507	47.16104241822992	1029.579397616874	2304.081254464641	40.73570151949961	1137.684773435661	1977.844345238868	1004.380174057661	1090.371522448584	2186.209785495256	161.6540176802185	1137.317409359345	2151.700939969327	172.5541730518983	1095.201980237569	2186.118431526076	240.9117497538927	1154.006647648765	2155.913415198756	250.5958794347139	1110.412808274467	2209.627641827255	592.5805156620058	1200.616045015297	2153.868561822913	566.3078682731459	1161.889589973625	2151.413367180791	683.899758436231	1222.70808288991	2098.455587204723	658.4825568585042	1186.879657030276	
2252	15.00666666666667	2156.519840543544	939.609519098949	941.7097358391982	1630.051154015205	550.7176377620191	1030.626357173746	1636.317401946117	521.9970278371297	981.3000679377124	1675.14312578498	525.7363383207639	1029.542700532327	2115.619450627448	1015.984107698156	904.768093746567	1595.534071993368	322.5736050716405	1039.655439678108	1582.704406907264	376.8804286992049	942.4794169543048	1983.695666875737	984.2862850652981	988.4518599282512	1740.433508712337	468.8809674616316	965.0615109211535	1743.75401776157	502.6214583619389	1004.64961464005	1820.238235967579	473.9792965133134	951.5793953189183	1827.220489764551	505.5352474804328	994.0458626718895	2079.9225316438	550.6236822295605	902.6243666652829	2023.775290979095	546.1137596635574	949.2722103973508	2059.807751094501	659.1113846646139	890.7451326426708	2008.550922482659	654.9620257034677	938.5048239271707	2143.472830535474	970.7910108183851	1165.934270448497	-6415072954.973069	1572572751.789845	-3349941614.296352	2080.611270048925	31.78653892075803	1091.566819219908	2113.472893134442	46.89948410021287	1128.995416950657	2096.849444438857	78.76630296196822	1084.549502475283	2087.713522755234	1030.140113107488	1195.929934126608	2302.850310600162	45.44472363492424	1029.810938885294	2280.81145171451	39.90115284832132	1138.0114274916	1975.170451819598	1000.21701041839	1088.204767477262	2168.001307249455	162.1153246926744	1136.944520685234	2133.738791749332	174.6526518626623	1094.975226364483	2171.395385716093	241.4085022576962	1153.740150477163	2141.649990295532	252.4463064679369	1110.114835990334	2205.181859585359	589.3761212582596	1200.798689985789	2149.994310294717	563.7302916753375	1160.744808315627	2146.70523672315	680.6588591814169	1222.931317465474	2094.282819162693	655.723885454866	1185.93933200955	
2253	15.01333333333333	2155.170192253521	934.6026207977565	942.6713120062155	1646.585731213009	552.2514081346202	1029.981539015441	1653.755555522961	523.8873129431396	980.8135616509647	1691.680904540084	527.3757390447873	1029.544827902084	2114.091275363325	1010.794019223522	904.5629593177214	1612.621003182851	323.8964008552044	1037.206154191835	1601.288406830745	378.9375579270691	940.1479037240169	1982.011021149724	980.2629526482144	987.489291872724	1757.815013291389	469.9295320171866	964.4096696612115	1761.587679070921	503.645379485393	1004.049165121962	1837.741540262941	473.9841941161369	950.9899479531576	1845.078520159821	505.4165450019383	993.5008846841505	2091.274473966212	547.6161719052999	901.6728531168444	2035.116743375403	540.5525445747662	947.8767667088798	2067.130561003672	655.3457254151751	890.5205534776107	2015.876918757271	648.8137541373682	937.7745035647804	2140.362596864428	968.0173560865557	1167.543288585041	-6424990577.933011	1575004714.592059	-3355119916.385072	2056.930990210278	32.69456205216053	1091.599726722878	2089.840343568302	47.74050835959117	1129.017514996518	2073.54029183194	79.62736957575893	1084.470585399278	2083.809638965207	1025.472022714354	1195.493968564953	2279.449139268839	44.83037958277372	1029.857349771281	2257.313959024792	39.91854573666906	1138.138202888422	1972.501947833015	996.7301765455373	1086.156165659595	2149.186079958407	162.7772816458309	1136.763827462524	2115.125469073419	176.8358841759646	1095.027939522818	2155.921081697658	241.9714223248708	1153.684688795121	2126.578243287156	254.2603210117984	1110.069669056346	2199.722376078718	586.137356600285	1200.880870961654	2145.004219292588	561.3206142679073	1159.534656738817	2141.354345330401	677.6502437703865	1222.994046304737	2089.395959214817	653.3771173109466	1184.88315024421	
2254	15.02	2153.627255896372	930.659849094607	943.4001632085709	1662.614108193392	552.6793562072521	1028.63584087368	1670.992535206746	524.5048574948794	979.7657745967425	1707.852927518389	528.1721416814499	1029.045591819452	2111.717525930455	1006.710225694888	904.2603906854411	1630.618560578627	324.0109109357918	1035.028081094727	1620.653492272427	379.2588979123681	937.8470968059228	1980.266085433843	977.2117442697245	986.6912749185824	1775.317697927715	470.4263064255666	963.6012460792364	1779.29687078078	504.1763323448259	1003.239594661648	1855.333574501497	473.9119189966891	950.3118334619205	1862.803287552424	505.339003090194	992.8111081027349	2103.00393850295	546.0550664177758	900.7587561142283	2046.910644684798	536.3362140407288	946.4479582814286	2074.670841177739	652.7902618949892	890.2514757907251	2023.420534246513	643.7788196124778	936.8497346131487	2137.095509625988	965.9161968496202	1169.179964513471	-6434918417.285447	1577439183.435276	-3360303552.095682	2033.371420592353	33.30413530005837	1091.758646331051	2066.318244165665	48.37487104838932	1129.154691968512	2050.061022390783	80.23977620853779	1084.643538249401	2079.256537044116	1021.574448694838	1195.186415191223	2255.755967471945	44.97664821346629	1029.789714614524	2233.712146508728	40.47544349601149	1138.128223745347	1969.944203728646	994.0093639695087	1084.33316080686	2129.835737906589	163.4446027073206	1136.731431077788	2095.97527323727	178.8842661409723	1095.274332471383	2139.703118976429	242.4120245116721	1153.784669035917	2110.725350583607	255.8337411561191	1110.202589452462	2193.204748962124	582.8551153126268	1200.898821205897	2138.803290315197	559.0423051661104	1158.392913067211	2135.372814723222	674.8864858300237	1222.919502758364	2083.764509818418	651.4424277598574	1183.808121255437	
2255	15.02666666666667	2151.982669292773	927.8976345004338	943.8469688145444	1678.009800023058	551.9747381441986	1026.673656753901	1687.849935675084	523.8589605881266	978.1965253953485	1723.527668146168	528.1030965967034	1028.073229330873	2108.632514032235	1003.79564970121	903.8667419587838	1649.406525467309	322.9013660685756	1033.118011884269	1640.598710752023	377.8832896178099	935.6011447809129	1978.52334051936	975.1553125694318	986.0945514148489	1792.787843332281	470.3735909038708	962.6559706610574	1796.71505219477	504.225347270431	1002.226441520074	1872.857908195187	473.7930710779688	949.5478701104017	1880.238094612151	505.3364143626387	991.9805688116661	2115.023725473387	545.9991966513276	899.889374782592	2059.094154216692	533.5443138475493	945.019954486265	2082.374893899902	651.4945179122072	889.9381527798683	2031.145769177373	639.9213427631475	935.7548396461682	2133.830427186157	964.4324472273893	1170.748310533506	-6444856478.289737	1579876159.610022	-3365492524.173564	2009.922507565881	33.66699531007507	1091.987514913913	2042.907435020383	48.8150536156145	1129.361735567458	2026.498348941471	80.64689344709667	1084.983296521545	2074.299001350435	1018.526196730404	1195.006145740053	2231.924035785024	45.55853516519841	1029.67420760606	2210.078541709347	41.28552028405715	1138.044127904589	1967.586753443844	992.1156240953778	1082.823033499166	2110.002878098158	163.9807288899528	1136.799558567531	2076.379960202402	180.649321045984	1095.623133462435	2122.753385439598	242.6098828624897	1153.978552170003	2094.124131723556	257.0416452499111	1110.432753282394	2185.632736793758	579.5581809669172	1200.891905464229	2131.362004168133	556.8870403772223	1157.436261962647	2128.790815524528	672.3923242092437	1222.738633847929	2077.385886127312	649.922110016058	1182.802437870796	
2256	15.03333333333333	2150.334399992028	926.3701202358479	943.9968762085127	1692.678404667949	550.0973711096575	1024.208048899363	1704.179400139966	521.9638024255285	976.1733535980015	1738.599370915677	527.137392162302	1026.676545148374	2105.050125769629	1002.050942652051	903.4041315013277	1668.879568862746	320.5727900149976	1031.458201843338	1660.947984250221	374.8897810796321	933.432868100645	1976.841360052415	974.0748743610141	985.715611267223	1810.085420360807	469.7686320894407	961.5970309870277	1813.69461001141	503.7954970893276	1001.019957959184	1890.167700153902	473.64041299673	948.7023816751112	1897.235785089771	505.4193141780642	991.0128564626937	2127.229114350162	547.4590328526792	899.0685528093695	2071.576448852047	532.2144650480586	943.6153839207853	2090.181903417468	651.4688828169681	889.5801963576739	2039.008790463296	637.2726877142429	934.5147258761391	2130.715063140277	963.4924255914913	1172.159567471919	-6454804766.205235	1582315644.406822	-3370686835.364098	1986.543854393019	33.85015748094617	1092.232033776123	2019.571476725226	49.09721797221111	1129.595882395109	2002.898036251095	80.90559382791119	1085.407358869991	2069.236629836215	1016.369144065431	1194.944766801761	2208.058784171898	46.30414510854311	1029.562765181202	2186.447209958348	42.11692271814836	1137.937965145467	1965.497390909974	991.0748891108384	1081.67907151506	2089.729434875651	164.3187686511455	1136.925347550276	2056.409742045818	182.0624688649986	1095.993581584926	2105.093641583983	242.5211787294669	1154.209979925621	2076.814610737285	257.8440498233635	1110.687618841446	2177.047219744951	576.3096415362982	1200.892936667492	2122.708151453496	554.8805556161267	1156.746190101649	2121.650436659727	670.2042707942937	1222.482690975369	2070.282528794162	648.8274025836357	1181.93206541171	
